<svg id="Lag_1" data-name="Lag 1" xmlns="http://www.w3.org/2000/svg" viewBox="0 0 2400 2400">
  <path d="M0,0V2400H2400V0ZM1580.8,267.3c2.8-7.8,26.5-9.1,44.4-2.2,5.8,2.2,12.7,7.8,26.7,18.9,19.5,15.6,29.9,27.2,34.4,32.4,3.8,4.4,6.5,7.9,8.1,10,19.8,25.8,32,45,43.8,61.1a219.375,219.375,0,0,0,17,20.8c18.4,19.9,40.5,43.8,68.8,42.2a54.311,54.311,0,0,0,6.9-.9c26-5.2,43.1-30.4,49.1-38.8,38.9-55,10.7-129.1,7.1-138.9-16.8-45.4-31.6-42.8-54.7-97.6s-29-115.2-18.9-118.1c4-1.2,10.5,6.9,14.2,11.6,12.7,15.9,13.8,32.2,15.4,43.2,3.3,22.2,10.8,37.6,22.5,61.1,13.9,28.1,27.4,36.2,42.5,56.3,24.5,32.5,28.7,63.6,35.5,115.3,1.5,13.1,7.3,59.9-.4,144.9-1.7,19.4-3.8,36.9-5.9,52.7-7.7,57.6-15.5,91.3-6.6,101.6-1.4,2.9-2.7,5.8-4.1,8.6-10.1,20-21.6,39.5-35.8,55.6a103.413,103.413,0,0,1-11.1,10.9c-3.8,3.1-8,5.8-11.1,6.7a9.54,9.54,0,0,1-1.7.4h-.2l-.3-.1-.6-.2a11.279,11.279,0,0,1-4-2.2c-2.7-2.2-5.6-6.8-8.9-11.8a80.721,80.721,0,0,0-12.3-15.1,63.654,63.654,0,0,0-16.8-11.1,72.8,72.8,0,0,0-9.8-3.7c-6.6-31.5-18.3-61.2-33.3-99.3-14.7-37.5-38.3-80.2-85.5-165.5-17.8-32.2-25.6-53.4-36.8-71.7a131.273,131.273,0,0,0-20.5-25.7C1608.5,289.9,1577.3,277,1580.8,267.3ZM307.5,451c9.2-8.7,15.3-9.5,19-8.9,8.6,1.5,10.2,11.7,23.1,21.9,10.8,8.5,21.9,6.5,31.4-3.7,9.2-9.8,14-26.8,20.3-38.8,7.5-14.3,17.4-28.2,31.2-36.9a67.734,67.734,0,0,1,28.3-9.7c4.2-.5,9.1-1.6,11.1,2.7,3.8,8.4-13.1,18.7-17.9,23.4-10.1,9.8-18,21.8-23.9,34.5-12.4,26.8-18,63.3.8,88.7,10,13.5,30.6,15.7,43.8,5.1.5-.4.9-.8,1.4-1.2a340.371,340.371,0,0,0,27.8-25.5c8.9-9.1,17.3-18.5,25.8-28.6,12.4-14.7,23.1-31,32.7-47.6,8.8-15.1,21.9-28.3,34.3-40.8a411.078,411.078,0,0,1,64.9-52.9c4.4-2.9,26.1-20.6,31.9-13.6,4.5,5.5-9.9,20.6-12.8,24.1,0,0-34.3,31-74.8,80.3C547.3,494.7,476,604.1,476.6,713.8c.2,33.7,2.9,67.5,10,100.6a447.571,447.571,0,0,0,16.8,58.8c.4,1.1.8,2.1,1.2,3.2-6.9-13.2-14.6-26-22.7-38.6-11.4-17.6-23.8-34.7-38.4-50.6A173.185,173.185,0,0,0,419.1,765c-8.7-6.2-16.8-12-24.9-18.3-6.4-5-12.6-10.2-18.5-15.5,2.5-14.4-2.7-36-4-44.9-1.7-11.9-4-23.8-6-35.7l-2.1-13.2c-.5-3.6-7.6-36.7-12-57.4,2.5-1.8,5-3.6,7.6-5.3a271.932,271.932,0,0,1,28.6-16.9c4.9-2.5,10.1-5.1,14.9-7.2,1.9-.7,5.6-1.4,9.2-3.9a13.062,13.062,0,0,0,4.8-5.9,13.894,13.894,0,0,0,.7-7.1,20.243,20.243,0,0,0-1.8-5.8,13.5,13.5,0,0,0-4.8-5.3,13.859,13.859,0,0,0-6.4-2.1,23.732,23.732,0,0,0-5.4.2c-6.4,1-11.6,2.7-17.2,4.2a227.291,227.291,0,0,0-32.2,12.8c-3.8,1.8-7.5,3.8-11.2,5.8-1.2-2.1-2.3-4.1-3.5-5.8-3.5-5.1-19.8-27.4-25.5-59.9A137.9,137.9,0,0,1,307.5,451ZM271.1,648a154.33,154.33,0,0,0-9.4,30.5,149.6,149.6,0,0,0-2.1,16.2c-.1,2.4-.2,4.9-.4,7.3a124.079,124.079,0,0,1-.5-52.2c7.2-34.1,25.4-64.8,53.3-85.9a153.164,153.164,0,0,1,17.8-11.5c7.2-3.5,14.6-6.7,22-9.6a210.107,210.107,0,0,1,32-9.8,123.684,123.684,0,0,1,16.2-2.3,14.7,14.7,0,0,1,3.2.2,2.981,2.981,0,0,1,1.6.7c.6.4,1,1.4,1.2,3.5,0,.9,0,1.2-.1,1.3,0,.1-.1.3-.6.6a9.12,9.12,0,0,1-2.4,1.1l-4.2,1.3c-5.7,2-11,4.1-16.4,6.3a314.378,314.378,0,0,0-31.5,15.2,216.627,216.627,0,0,0-29.6,19.6,126.566,126.566,0,0,0-15.3,14.1c-.4.4-.9.8-1.3,1.2a126.85,126.85,0,0,0-19.3,24.8A221.724,221.724,0,0,0,271.1,648Zm29,112.9q-1.784-4.458-3.27-8.915l-.13.215a139.939,139.939,0,0,1-4.5-16.8A126.958,126.958,0,0,1,290,710c0-4.3.1-8.8.5-13.2.3-4.4.7-8.8,1.4-13.2a236.7,236.7,0,0,1,5.4-26.6c.8-2.9,1.7-6,2.5-9.1-.8,14.2.8,28.1,4.5,39.2,3.392,10.175,7.68,20.052,14.75,29.332.05-.077.1-.155.15-.232,1.6,2,3.3,4,5.1,5.9A150.361,150.361,0,0,0,335.6,733a183.164,183.164,0,0,0,18.3,15.3c8.9,6.6,17.9,12.5,27,18,9,5.6,18.5,10.9,27.4,15.7a151.592,151.592,0,0,1,24.1,16.8c15.5,12.9,29.7,27.9,43.1,43.6a494.452,494.452,0,0,1,33.3,44.1,293.173,293.173,0,0,0,17.7,34.2c21.7,36.7,47.8,71,72.4,106.1,19.2,27.5,41.7,51.1,64,76.3,23,26,106.7,106,163.7,160.8a131.33,131.33,0,0,0-20.8-8.4c-11.2-3.6-23.4-7-36-8.7a204.885,204.885,0,0,0-37.4-1.4l-9.1.7c-3.2.3-5.8.5-9.4,1a144.177,144.177,0,0,0-18.9,3.6c-11.8,3.1-23.2,6.6-34.4,10.4l-6.9,2.4c.4-.5.9-1.1,1.3-1.6,16.2-26.7-34.5-114.9-54.6-148-65.9-108.6-72.6-107.2-112.7-175,0,0-10.3-17.3-38.9-56.6-10.6-14.6-20-29.2-33.5-41.4-7.6-6.8-22.2-14.1-32.1-16.5a87.6,87.6,0,0,1-10.3-3.1c-7.1-2.8-14.2-5.4-21.1-8.7a191.66,191.66,0,0,1-41.3-26.9C306.9,777,303.1,769,300.1,760.9Zm47.4,260.3c-3.4-4.6-6.7-9.7-10.5-13.9-3-3.3-6.5-5.2-7.2-10.2-1.4-11.1,12.4-6.6,17.9-4.6,10,3.8,18.8,10.4,26.4,17.8,20.3,23.2,33.1,50.4,37.5,80.9,3.5,24.9,3.2,50.1,6.2,75,1.9,16.1,4.6,35.9,11.6,52.1l-.3-.3a147.915,147.915,0,0,1-17.9-20.1,241.681,241.681,0,0,1-15.4-23.7,176.48,176.48,0,0,1-11.8-25.8c-1.5-4.4-3-9-4.2-13.7-1.3-4.7-2.4-9.7-3.5-14.7-1.8-7.7-3.4-15.9-5.8-23.9.3-3.5.4-6.9.4-10.3l.3-10c-.5-4.1-1.6-12.8-6.8-26.7C360.6,1039,353.9,1029.9,347.5,1021.2ZM2000.2,482.4c13.7,56.4,25.2,58,29.6,86.4,3.6,23.7-.8,46.1-8.3,65.8-9.9,26-25.2,47.1-34.3,59.7-20.9,28.8-29.7,26.2-58,60.1-28.1,33.8-37,54.7-68.9,113.3-41.8,76.9-62.8,115.3-87.9,149.5-43.2,58.9-64.8,88.4-75.6,100.6-9.1,10.4-30.9,34.6-41.8,71.3-1.7,5.6-3.1,10.6-4.2,15.3-4.8.9-9.6,1.9-14.4,2.8-3.1.5-6.6,1.3-10,2.1s-6.8,1.5-10.2,2.4c-6.8,1.6-13.4,3.5-20,5.4a479.5,479.5,0,0,0-76.2,29.2c-24.2,12-47.9,25.6-67.7,43.4,23.3-12.6,48.6-20,73.9-25.8a489.187,489.187,0,0,1,76.6-10.3c6.4-.3,12.7-.5,19-.5,3.2-.1,6.3,0,9.4.1s6.2.1,9.7.1c13.5-.1,27.1-.5,40.8-1.3s27.6-2,41.9-4.1c7.2-1.1,14.5-2.5,22.2-4.4a135.459,135.459,0,0,0,15.1-4.7,335.219,335.219,0,0,0,45-13.8c13.4-5.2,67.6-27.3,117.3-81.9,82.4-90.7,80.4-191.6,78.6-203.3a1,1,0,0,0-.1-.4,83.122,83.122,0,0,1,5.6-41.6c1.7-4.2,6.3-15.1,10.7-14.8,7.9.6,10.2,38.9,10.7,46.4,5.2,87.8-31.1,162.7-37.3,175.1-9.4,18.9-24.4,48.3-53.3,80a321.277,321.277,0,0,1-118.5,81.4c-42.3,16.6-98.2,27.7-142.1,23.5a287.04,287.04,0,0,0-58.1-.6c-11.7,1.1-25.7,2.5-43.3,7.5-11.8,3.3-39.9,12.5-78.6,43.1-6.5,5.2-10.8,8.9-19.3,16.5-37.3,33.2-58.1,51.8-73.9,79.9-7.7,13.7-6.4,15.7-23.2,48.8-.3.5-.9,1.8-1.9,3.5,1.8.6,3.7,1.2,5.5,1.8,20.2-32.6,40.6-45.5,58.7-49.4,19.5-4.2,46.5-.1,90.7-13.6a280.54,280.54,0,0,0,69.6-32.5,5.777,5.777,0,0,1,.7-1.4.55.55,0,0,1,.5-.3c.9-.1,2.1,4.3,2.3,4.9,5.9,22.3-9.5,68.4-9.5,68.4a276.925,276.925,0,0,1-12.9,37.5c-7.4,17.6-15.9,37.8-33.8,59.3a190.307,190.307,0,0,1-52.5,43.4c-24.5,13.6-41.9,15.8-46.2,16.3a122.832,122.832,0,0,1-18.3.5q-4.2-.15-7.8-.6c-11.3,10.2-26.1,21.1-30,40.6-2.3,11.3,1,16.6-1.8,32.6-3.3,19-11.4,32-14.3,37.3-19.5,34.8-22,100.3-23.2,116.4-.5,6.7-2.6,18-5.9,32.3,16.4,50.5,34.8,107.8,57.4,172.5,46.9,134.7,77,200.5,93.8,245.8A1057.116,1057.116,0,0,1,855,2286.1c1-8.2,2.3-17.5,3.5-27.6,17.9-143,56.2-155.9,122.4-342.3l84.7,158.7c11.2,27.9,21.8,49,29.8,55.9l-.17-.542c-8.065-7.134-18.552-28.163-29.53-55.658l29.332,55.023L997,1815.3c-2.7-26.3-8.3-60.3-20.5-82.2-2.9-5.2-11-18.3-14.3-37.3-2.8-16,.5-21.2-1.8-32.6-4-20-19.4-30.9-30.9-41.4a134.02,134.02,0,0,1-14,1.3,122.434,122.434,0,0,1-18.3-.5c-4.3-.5-21.7-2.6-46.2-16.3a188.513,188.513,0,0,1-52.5-43.4c-17.9-21.5-26.4-41.8-33.8-59.3a314.112,314.112,0,0,1-12.9-37.5s-15.4-46.1-9.4-68.4c.2-.6,1.4-5,2.3-4.9a.536.536,0,0,1,.4.3,8.809,8.809,0,0,1,.7,1.4,280.54,280.54,0,0,0,69.6,32.5c44.2,13.6,71.2,9.5,90.7,13.6,18.5,3.9,39.4,17.3,60,51.4,3.7-1.3,7.5-2.6,11.5-3.9-9.1-13.4-12.9-23.4-17.8-32.2-10-18-20.6-23.7-96.3-68.9-59.4-35.5-64.5-38.1-78.6-42.4-26.3-8.1-54.4-1.5-81.3-1.6a960.855,960.855,0,0,1-122.2-8.1c-47-6.1-89.2-11.3-125.1-25-37.2-17-55.2-37.6-64.2-50.6-18-26-23.7-56.4-25-84.2,1.1,3.6,2.3,7.2,3.7,10.7,2,5.1,4.1,10.2,6.6,15.2a128.08,128.08,0,0,0,8.6,14.7,105.534,105.534,0,0,0,23.8,25.2,146.364,146.364,0,0,0,13.9,9.3c4.6,2.6,9.2,5,14.3,7.4a108.713,108.713,0,0,0,31.8,8.8,73.452,73.452,0,0,0,17.8,2.5c19.5,6.6,35.3,8.3,47.4,9.9,19.6,2.6,44.5,6.8,67.4,5.8,21.1,1.3,42.3-1.3,62.8-3.9,11.7-1.5,23.3-3.3,34.6-4.6a160.449,160.449,0,0,1,16.1-1.3h1.9l2.1.1,4.3.1,8.5.3c11.3.4,22.3,1.1,33.1,2.3,10.7,1.4,21.6,3.3,33.1,5.5,11.7,2,21.8,3.2,32.2,6.3,10.2,3,21.2,7.6,33,10.8A1187.834,1187.834,0,0,0,990.3,1371c45.9,22.2,89.2,39.2,134.8,82.9q5.7,5.55,10.5,10.5c16.2.3,30.6,1.3,42.8,2.6,10.2-1.1,22-2,35.1-2.4,3.3-5.8,10.4-14.3,25.7-27,27.4-22.6,49.3-32.3,71.1-44.4,16.4-9.2,33.2-21.4,66.6-45.9a1340.894,1340.894,0,0,0,105.4-86c17.2-15.6,58.1-54.8,118-121.1,88.4-97.8,131-148.1,164.1-213.6,16.8-33.2,35.1-69.6,46-111.8a86.521,86.521,0,0,1,2.3,13.5,117.376,117.376,0,0,1-3,33.8c-5,22.4-14.7,43.7-23.8,65,10.3-20.7,21.2-41.3,27.6-64,3.2-11.3,5.3-23,5.1-35a83.482,83.482,0,0,0-2.2-17.9,168.026,168.026,0,0,0-5.1-17.1c-8-22.3-20.4-42.7-31.8-62.6-2.8-5-5.6-10-7.9-14.9s-4.3-10.1-4.3-13.9a6.873,6.873,0,0,1,.3-2.2,5.013,5.013,0,0,1,.8-1.4,10.93,10.93,0,0,1,4.2-2.8,38.079,38.079,0,0,1,14-2.3,69.135,69.135,0,0,1,29.8,7.1c9.1,4.6,15.2,11.3,20.6,20.8,2.9,4.7,5.6,10.5,11.5,16.2a32.066,32.066,0,0,0,10.7,6.8l1.5.5.8.2,1,.3a15.292,15.292,0,0,0,4.1.5,24.428,24.428,0,0,0,6.9-.7,48.114,48.114,0,0,0,8.6-3,66.534,66.534,0,0,0,10.8-6.3,117.79,117.79,0,0,0,14.6-12.4c17.7-17.7,31.1-37.8,43.3-58.3,6-10.3,11.7-20.8,17-31.4l2-4,1-2.1a34.226,34.226,0,0,0,1.3-3.4c.4-1.2.7-2.3,1-3.5,5-10.3,4.7-22.2,1.9-40.1-2.3-14.3-6.1-32.5-10.2-56.8-11.6-69.8-7.1-85.5.3-97.9,10.9-18.3,34.4-39.8,55.3-37,4.3.6,11.4,2.5,12.3,6.3,1.6,6.8-18.8,11.4-30.1,24.3C1991.9,431.4,1992,448.4,2000.2,482.4Z" fill="#fcfcfc"/>
</svg>
